<?xml version="1.0" encoding="UTF-8"?>
<svg id="Camada_2" data-name="Camada 2" xmlns="http://www.w3.org/2000/svg" viewBox="0 0 762.18 228.25">
  <defs>
    <style>
      .cls-1 {
        fill: #faede1;
        stroke-width: 0px;
      }
    </style>
  </defs>
  <g id="Camada_1-2" data-name="Camada 1">
    <g>
      <path class="cls-1" d="M288.7,132.71c0,7.15-2.52,13.54-7.48,18.88-4.87,5.24-10.95,7.82-17.91,7.82-5.21,0-10.17-1.62-14.6-4.77-4.26-2.96-7.91-8.2-11.56-15.06l-.78-1.43c-.7-1.24-.35-2.86.78-3.62l9.3-6.2c.52-.38,1.22-.48,1.83-.29.61.19,1.22.67,1.48,1.24l.96,1.81c2,3.81,4,6.86,6.26,8.87,3.39,3.05,7.56,2.86,10.78.95,1.48-.76,2.61-1.91,3.39-3.43.78-1.43,1.13-2.96,1.13-4.58,0-1.91-.61-3.62-1.74-5.43-2.17-3.34-6.08-7.44-11.91-12.11-6.69-5.62-10.69-9.63-12.52-12.3-3.13-4.58-4.78-9.63-4.78-15.16,0-4.48,1.04-8.58,2.87-12.11.96-1.81,2.17-3.53,3.56-4.96,1.39-1.43,2.95-2.57,4.69-3.72,6.69-4.1,16.17-4,23.12.48,3.56,2.29,7.3,6.2,11.04,11.82l1.04,1.43c.78,1.14.52,2.76-.52,3.72l-8.78,7.34c-1.04.86-2.52.67-3.3-.38l-1.22-1.53c-3.3-4.48-4.95-6.48-6-7.15-2.7-1.81-6.95-1.53-8.78.48-1.22,1.24-1.74,2.57-1.74,4.19,0,1.05.26,2.19.7,3.43.26.76,1.04,2,2.78,3.91.26.29.61.76,2.26,2.1,1.3,1.14,3.65,2.96,7.04,5.72,6.95,5.62,11.65,10.68,14.34,15.25,2.87,4.77,4.26,9.72,4.26,14.78Z"/>
      <path class="cls-1" d="M312.41,66.84v89.81c0,1.53-1.13,2.76-2.52,2.76h-11.47c-1.39,0-2.52-1.24-2.52-2.76v-89.81c0-1.53,1.13-2.76,2.52-2.76h11.47c1.39,0,2.52,1.24,2.52,2.76Z"/>
      <path class="cls-1" d="M388.9,66.36v94.58c0,1.14-.7,2.19-1.65,2.57-.26.1-.61.19-.87.19-.69,0-1.39-.38-1.91-.95l-48.68-61.11v53.96c0,1.53-1.13,2.76-2.52,2.76h-11.65c-1.39,0-2.52-1.24-2.52-2.76v-89.24c0-1.53,1.13-2.76,2.52-2.76h4.35c.7,0,1.39.38,1.83.95l44.77,56.54v-54.72c0-1.53,1.13-2.76,2.52-2.76h11.3c1.39,0,2.52,1.24,2.52,2.76Z"/>
      <path class="cls-1" d="M463.6,84.47c4.69,8.01,7.04,17.54,7.04,28.32,0,9.44-2,17.83-5.65,25.07-3.74,7.15-8.78,12.68-14.95,16.3-6,3.43-14.34,5.24-24.77,5.24h-26.69c-1.39,0-2.52-1.24-2.52-2.76v-89.81c0-1.53,1.13-2.76,2.52-2.76h18.08c12.17,0,20.95,1.05,26.86,3.34,8.61,3.24,15.3,9.06,20.08,17.07ZM412.23,141.77h4.61c10.52,0,17.65-.67,21.3-2,5.13-1.81,8.78-4.96,11.47-9.44,2.95-4.77,4.43-10.58,4.43-17.35,0-7.25-1.57-13.44-4.7-18.5-3.22-5.05-7.39-8.39-12.95-10.3-4.52-1.43-12.26-2.19-23.03-2.19h-1.13v59.78Z"/>
      <path class="cls-1" d="M525.18,132.71c0,7.15-2.52,13.54-7.48,18.88-4.87,5.24-10.95,7.82-17.91,7.82-5.21,0-10.17-1.62-14.6-4.77-4.26-2.96-7.91-8.2-11.56-15.06l-.78-1.43c-.7-1.24-.35-2.86.78-3.62l9.3-6.2c.52-.38,1.22-.48,1.83-.29.61.19,1.22.67,1.48,1.24l.96,1.81c2,3.81,4,6.86,6.26,8.87,3.39,3.05,7.56,2.86,10.78.95,1.48-.76,2.61-1.91,3.39-3.43.78-1.43,1.13-2.96,1.13-4.58,0-1.91-.61-3.62-1.74-5.43-2.17-3.34-6.08-7.44-11.91-12.11-6.69-5.62-10.69-9.63-12.52-12.3-3.13-4.58-4.78-9.63-4.78-15.16,0-4.48,1.04-8.58,2.87-12.11.96-1.81,2.17-3.53,3.56-4.96,1.39-1.43,2.95-2.57,4.69-3.72,6.69-4.1,16.17-4,23.12.48,3.56,2.29,7.3,6.2,11.04,11.82l1.04,1.43c.78,1.14.52,2.76-.52,3.72l-8.78,7.34c-1.04.86-2.52.67-3.3-.38l-1.22-1.53c-3.3-4.48-4.95-6.48-6-7.15-2.7-1.81-6.95-1.53-8.78.48-1.22,1.24-1.74,2.57-1.74,4.19,0,1.05.26,2.19.7,3.43.26.76,1.04,2,2.78,3.91.26.29.61.76,2.26,2.1,1.3,1.14,3.65,2.96,7.04,5.72,6.95,5.62,11.65,10.68,14.34,15.25,2.87,4.77,4.26,9.72,4.26,14.78Z"/>
      <path class="cls-1" d="M614.45,66.93l11.73,89.71c.09.86-.09,1.62-.61,2.19-.43.67-1.13.95-1.91.95h-11.39c-1.22,0-2.26-.95-2.43-2.38l-6.09-47.76-24.08,53.49c-.43.95-1.3,1.53-2.26,1.53s-1.82-.57-2.26-1.53l-24.25-53.87-5.91,48.15c-.17,1.43-1.3,2.38-2.52,2.38h-11.3c-.69,0-1.39-.29-1.91-.95-.43-.57-.69-1.33-.52-2.19l11.73-89.71c.17-1.33,1.22-2.38,2.43-2.38h4c.96,0,1.82.57,2.26,1.53l28.42,62.83,28.08-62.83c.43-.95,1.3-1.53,2.26-1.53h4c1.3,0,2.35,1.05,2.52,2.38Z"/>
      <path class="cls-1" d="M692.63,66.74v52.63c0,4.1-.17,7.63-.52,10.77-.26,3.24-.78,6.2-1.56,8.87-1.56,5.34-4.78,10.2-9.47,14.21-4.78,4.1-10.52,6.2-17.12,6.2-6.95,0-13.04-1.91-18.17-5.62-5.21-3.81-8.78-8.96-10.6-15.35-.52-1.91-.96-4.39-1.22-7.72-.26-3.05-.43-6.77-.43-11.34v-52.63c0-1.43,1.13-2.67,2.43-2.67h11.3c1.3,0,2.43,1.24,2.43,2.67v52.63c0,3.62,0,6.29.09,7.82,0,.95,0,1.72.09,2.19.09.19.17.48.17.76.17,2.38.78,4.48,1.82,6.1,1.04,1.62,2.69,2.86,4.78,4,4.08,2.1,8.26,2.57,12.43.48,1.65-.76,3.04-2,4.35-3.72,1.13-1.43,2-3.53,2.52-5.82.17-.57.26-1.62.44-3.24.17-1.81.17-4.67.17-8.58v-52.63c0-1.43,1.13-2.67,2.52-2.67h11.13c1.3,0,2.43,1.24,2.43,2.67Z"/>
      <path class="cls-1" d="M762.18,66.84v12.3c0,1.53-1.13,2.76-2.52,2.76h-20.95v74.75c0,1.53-1.13,2.76-2.52,2.76h-11.65c-1.39,0-2.52-1.24-2.52-2.76v-74.75h-21.03c-1.39,0-2.52-1.24-2.52-2.76v-12.3c0-1.53,1.13-2.76,2.52-2.76h58.67c1.39,0,2.52,1.24,2.52,2.76Z"/>
    </g>
    <g>
      <path class="cls-1" d="M110.02,82.47c-6.77.95-6.53,8.18-6.32,10.14.17,1.56.94,3.09,1.44,4.77.55,1.84,1.18,3.84,2.23,5.47,1.35,2.09,5.85,7.33,10.32,9.21,1.08.45,2.29.38,3.31-.18,1.45-.8,2.86-2.14,3.72-4.38.26-.69.03-1.48-.57-1.91-1.32-.96-4.01-2.97-8.12-6.36-6.11-5.03-7.67-5.89-7.27-9.65.4-3.76,4.37-4.9,7.25-5.26.25-.03,2.63.1,3.03,0,0,0-6.02-2.27-9.02-1.85Z"/>
      <path class="cls-1" d="M105.4,103.17c-1.48-2.71-2.17-7.63-3.04-10.44-.17-.57-3.95.93-4.31,1.19-1.43,1.02-2.86,2.73-3.35,4.43-.24.84-.29,1.75-.21,2.69.27,3,1.95,6.29,3.4,8.49,1.41,2.14,5.68,8.16,8.48,8.8,1.07.24,2.25.45,3.3.62,1.75-.1,5.76-.8,6.15-5.03.05-.54-.18-1.08-.61-1.42-1.88-1.51-6.64-3.5-9.81-9.33Z"/>
      <path class="cls-1" d="M92.07,118.65c1.81,1.45,3.88,1.69,4.28,1.72.05,0,.1.01.14.03.26.07,1.17.33,2.5.67.57.05,1.3.09,1.8-.05,1.4-.86,1.17-1.83,1.15-2.89-.23-1.25-1.51-2.29-2.22-3.3-2.03-2.37-4.15-5.32-4.88-7.27-.49-1.31-1.69-3.85-1.52-6.64.01-.22-1.97.52-2.17.65-.82.56-1.42,1.11-1.9,1.76-1.09,1.48-1.97,3.29-1.71,5.18.21,1.56.54,2.69.94,4.1.02.09.64,3.7,3.58,6.04Z"/>
      <path class="cls-1" d="M123.85,74.17c-1.49.45-5.1,1.64-5.65,4.66-.56,3.03.04,3.97.04,3.97l.42.82c4.56-1.46,12.84-4.81,16.33-6.75-3.41-1.13-9.71-3.13-11.13-2.7Z"/>
      <path class="cls-1" d="M88.73,113.46c-.08-.27-.15-.52-.22-.77-1.12.18-5.56,1.05-11.34,4.03-4.84,2.5-10.09,6.3-10.19,6.38.45.97.97,1.9,1.55,2.78.02-.02,9.14-8.49,20.97-10.62-.33-.61-.59-1.22-.76-1.8Z"/>
      <path class="cls-1" d="M191.94,98.26l-36.21-71.8c-.06-.13-.17-.23-.29-.29L101.87.12c-.06-.03-.12-.05-.19-.07-2.08-.43-5.72,2.03-6.73,2.76-.17.12-.27.31-.26.52,0,.93.03,3.58.03,4.04,0,.05,0,.09.02.14,1.01,3.83.26,8.03.04,9.11-.04.17-.14.32-.28.41l-3.23,2.06c-.19.12-.3.32-.3.55v3.13c0,.08-.01.15-.04.22l-.68,1.86c-.02.06-.03.12-.04.19l-.25,4.79-1.35-.38-1.89,1.64c-.13.12-.31.17-.49.15l-2.39-.23c-.18-.02-.37.04-.5.17l-2.16,2c-.1.1-.24.16-.38.17l-3.29.33c-.07,0-.13.02-.19.05l-1.77.76c-.2.08-.34.26-.38.47l-.41,2.15c-.03.16-.12.3-.25.4l-8.31,6.14c-.17.13-.4.16-.61.09l-3.26-1.19c-.24-.09-.51-.03-.69.16l-1.44,1.49-2.01-1.5c-.23-.17-.55-.17-.78,0l-2.23,1.73c-.08.07-.18.11-.29.13l-1.95.33c-.12.02-.22.07-.31.15l-1.84,1.57c-.08.07-.18.12-.29.14l-4.73.95c-.16.03-.31.12-.4.26C42.72,51.79,4.81,106.66.11,113.47c-.24.35-.07.8.32.97,3.96,1.72,4.83,7.4,4.97,8.56.02.14.08.26.18.37l2.85,2.92c.06.06.13.11.21.15l6.97,2.89,3.44-3.89c.08-.05.2-.13.27-.18l6.03-1.89c.22-.04.72.1.87.27l2.79,3.98c.14.16.34.25.56.22,1.02-.12,2.52-.53,3.31-.29.73.22,3.12,3.69,3.48,5.28.09.41.54.62.92.43l2.82-1.41c.06-.03.12-.05.19-.06.59-.09,3.86-.56,5.22-.73,1.25-.16,2.96,2.24,3.49,3.03.11.16.27.26.47.27.96.06,3.89.26,4.72.65.9.43.03,4.9-.15,5.76-.02.1-.01.2.01.3l24.45,84.51c.04.15.14.28.27.37l3.4,2.17c.1.07.22.1.35.1h13.8c.12,0,.24-.04.34-.1,2-1.23,3.1-1.7,3.61-1.87.22-.08.46-.02.63.13l1.94,1.71c.12.1.27.16.43.16h4.65c.18,0,.35-.07.47-.19l63.39-66.46c.09-.1.22-.16.35-.19l5.3-.99c.18-.03.33-.14.42-.3,1.15-1.97,3.86-4.18,5-5.07.29-.23.33-.63.09-.92l-2.15-2.59c-.05-.07-.1-.14-.12-.22l-1.49-4.84c-.07-.23.42-2.04.6-2.21.71-.69,3.81-4.29,3.71-4.51l-3.5-3.9c-.07-.15,12.1-34.23,12.1-34.23.44-1.09.38-2.33-.16-3.37ZM119.67,150.53c-.29-.13-1.42-.75-1.71-.62-1.36.59-5.55,2.77-11.21-1.06,0,0,5.29,1.65,9.86-1.02.31-.18.67-.22,1-.09,2.19.92,11.11,4.21,17.38.25,0,0-5.58,6.98-15.31,2.54ZM166.61,117.64c-.09,2.32-.32,4.26-.67,5.93.04.14,0,.41-.03.52l-.46,1.41c.18-.6.35-1.24.49-1.93,0-.02,0-.05-.02-.06-.43-.64-2.62-2.96-12.04-6.73l-.88,2.39s0,0,0,.01c0,0,8.58,3.52,12.19,7.12.02-.05.04-.11.06-.16l-.05.16s0,0,0,0c-1.63,4.55-4.58,6.97-8.77,10.9l-2.89,2.89s-.02-.02-.05-.04c-.5.5-1.01,1.03-1.54,1.59-.02.02-.03.03-.05.05-.28.36-4.32,5.42-10.26,12.9.57-1.42.91-3.61,3.3-11.47,0,0,.94-2.91,2.26-6.91,3.89,1.92,5.99,3.6,6.29,3.84,1.04-1.05,2.02-1.98,2.94-2.85h.01c-2.7-1.76-5.38-3.26-8.05-4.57,1.5-4.49,3.22-9.57,4.62-13.44h0,0c.31-.87.61-1.68.88-2.4,3.06-8.08,4.56-7.26-1.24-17.4-5.68-9.92-10.91-22.09-15.1-22.01-.18,0-.34.06-.5.15-1.84.99-14.14,7.51-18.8,7.68-5.04.19-10.93,3.48-6.23,8.17,3.96,3.95,9.46,8.13,14.7,8.01.28,0,.54-.11.74-.3,1.83-1.69,5.12-5.38,6.5-11.04,0,0-1.01,7.29-3.44,11.69-.21.38-.2.83.05,1.18.82,1.21,2.29,2.55,4.85,2.85,0,0-4.92-.24-6.72,1.23-1.75,1.43-11.61,7.78-11.98,18.14-.16,0-.33,0-.49,0-.38-.95-.87-2.68-.98-5.44-.04-1.1-1.67-.62-2.11-.51l-17.44,3.66c-.44.07-.51,1.98-.66,3.06-.11.82-.16,1.59-.19,2.34-10.31,2.97-16.72,6.98-16.72,6.98l.05.09c.39.46.69.97.94,1.52h0s.09.19.09.19l.16.31v.06c.17.45.28.92.33,1.41,0,0,4.93-2.99,8.96-4.39,2.49-.87,4.74-1.41,4.75-1.41.58-.15,1.15-.27,1.72-.4,1.19,6.5,5.59,10.36,9.16,14.58.16.19.25.41.26.66.19,4.52,2.02,48.68-6.68,62.26-3.39,4.37-6.27,8.12-8.33,10.86-1.13,1.51-3.53.8-3.67-1.08l-6.19-81.07-.32-1.41c-.04-.13-.12-.25-.17-.38-.03-.07-.07-.13-.1-.19l-.94-1.52c-.34-.39-.72-.76-1.15-1.06-2.53-1.76-6.01-4.65-8.49-8.4h0s-.78-1.08-.78-1.08l-.78-1.69s0,0,0,0c-.67-1.46-1.18-3.02-1.41-4.68-.97-7-1.56-33.5-.67-46.87-.03.01-.07.03-.07.03l.26-2.44.05-.48.05-.45c-.11.98-.2,2.11-.28,3.34.69-.26,8-3.06,14.92-5.31,47.25-14.68,86.71,4.86,86.74,4.87-.06-1.07-.13-2.06-.21-2.93-52.18-25.12-101.15-.01-101.16,0,0,0,0,0,0,.01h0s0-.01,0-.01c.24-2.14.54-3.63.91-4.19,4.95-7.44,22.15-14.28,49.74-14.28,30.48,0,45.18,9.21,49.66,14.28.36.41.64,1.92.85,4.2.04.02.08.04.12.05l.09,2.88h0c.83,14.17.14,44.39.06,46.54Z"/>
    </g>
  </g>
</svg>